<svg xmlns="http://www.w3.org/2000/svg" viewBox="0 0 512 512">
  <defs>
    <radialGradient id="or_bg" gradientUnits="userSpaceOnUse" cx="256" cy="215" r="360">
      <stop offset="0%" stop-color="#0a1c38"/>
      <stop offset="55%" stop-color="#070f22"/>
      <stop offset="100%" stop-color="#05080f"/>
    </radialGradient>
    <radialGradient id="or_globe" cx="256" cy="256" r="120" gradientUnits="userSpaceOnUse" fx="218" fy="216">
      <stop offset="0%" stop-color="#123a63"/>
      <stop offset="45%" stop-color="#0c2748"/>
      <stop offset="82%" stop-color="#081b34"/>
      <stop offset="100%" stop-color="#06121f"/>
    </radialGradient>
    <radialGradient id="or_rim" cx="256" cy="256" r="138" gradientUnits="userSpaceOnUse">
      <stop offset="74%" stop-color="#39d0ff" stop-opacity="0"/>
      <stop offset="86%" stop-color="#46afff" stop-opacity="0.35"/>
      <stop offset="93%" stop-color="#39d0ff" stop-opacity="0.9"/>
      <stop offset="98%" stop-color="#aa73ff" stop-opacity="0.45"/>
      <stop offset="100%" stop-color="#aa73ff" stop-opacity="0"/>
    </radialGradient>
    <linearGradient id="or_ringA" gradientUnits="userSpaceOnUse" x1="96" y1="150" x2="416" y2="362">
      <stop offset="0%" stop-color="#aa73ff" stop-opacity="0.25"/>
      <stop offset="30%" stop-color="#46afff" stop-opacity="0.95"/>
      <stop offset="60%" stop-color="#39d0ff" stop-opacity="1"/>
      <stop offset="100%" stop-color="#2ee6c2" stop-opacity="0.3"/>
    </linearGradient>
    <linearGradient id="or_ringB" gradientUnits="userSpaceOnUse" x1="120" y1="380" x2="400" y2="140">
      <stop offset="0%" stop-color="#2ee6c2" stop-opacity="0.28"/>
      <stop offset="40%" stop-color="#39d0ff" stop-opacity="0.95"/>
      <stop offset="75%" stop-color="#46afff" stop-opacity="0.85"/>
      <stop offset="100%" stop-color="#aa73ff" stop-opacity="0.35"/>
    </linearGradient>
    <radialGradient id="or_node" cx="0" cy="0" r="1" gradientUnits="objectBoundingBox">
      <stop offset="0%" stop-color="#eafcff"/>
      <stop offset="35%" stop-color="#39d0ff"/>
      <stop offset="100%" stop-color="#39d0ff" stop-opacity="0"/>
    </radialGradient>
    <radialGradient id="or_aur1" cx="0.5" cy="0.5" r="0.5">
      <stop offset="0%" stop-color="#aa73ff" stop-opacity="0.85"/>
      <stop offset="60%" stop-color="#46afff" stop-opacity="0.3"/>
      <stop offset="100%" stop-color="#46afff" stop-opacity="0"/>
    </radialGradient>
    <radialGradient id="or_aur2" cx="0.5" cy="0.5" r="0.5">
      <stop offset="0%" stop-color="#2ee6c2" stop-opacity="0.8"/>
      <stop offset="60%" stop-color="#39d0ff" stop-opacity="0.28"/>
      <stop offset="100%" stop-color="#39d0ff" stop-opacity="0"/>
    </radialGradient>
    <filter id="or_glow" x="-60%" y="-60%" width="220%" height="220%">
      <feGaussianBlur stdDeviation="4" result="b"/>
      <feMerge>
        <feMergeNode in="b"/>
        <feMergeNode in="SourceGraphic"/>
      </feMerge>
    </filter>
    <filter id="or_softglow" x="-80%" y="-80%" width="260%" height="260%">
      <feGaussianBlur stdDeviation="9"/>
    </filter>
    <filter id="or_nodeGlow" x="-200%" y="-200%" width="500%" height="500%">
      <feGaussianBlur stdDeviation="3.2"/>
    </filter>
  </defs>
  <rect width="512" height="512" fill="#05080f"/>
  <rect width="512" height="512" fill="url(#or_bg)"/>
  <g fill="#cfeaff">
    <circle cx="74" cy="96" r="2.2" opacity="0.9"/>
    <circle cx="438" cy="120" r="1.6" opacity="0.7"/>
    <circle cx="404" cy="430" r="2.4" opacity="0.85"/>
    <circle cx="96" cy="412" r="1.5" opacity="0.6"/>
    <circle cx="150" cy="70" r="1.3" opacity="0.55"/>
    <circle cx="462" cy="300" r="1.4" opacity="0.5"/>
  </g>
  <g opacity="0.5" filter="url(#or_glow)">
    <ellipse cx="256" cy="256" rx="196" ry="74" fill="none" stroke="url(#or_ringB)" stroke-width="4" transform="rotate(-34 256 256)"/>
  </g>
  <g opacity="0.42" filter="url(#or_glow)">
    <ellipse cx="256" cy="256" rx="190" ry="60" fill="none" stroke="url(#or_ringA)" stroke-width="3.5" transform="rotate(28 256 256)"/>
  </g>
  <ellipse cx="118" cy="232" rx="46" ry="40" fill="url(#or_aur1)" filter="url(#or_softglow)"/>
  <ellipse cx="392" cy="286" rx="44" ry="38" fill="url(#or_aur2)" filter="url(#or_softglow)"/>
  <circle cx="256" cy="256" r="122" fill="url(#or_globe)"/>
  <g fill="none" stroke="#39d0ff" stroke-opacity="0.30" stroke-width="1.4">
    <ellipse cx="256" cy="256" rx="122" ry="46" />
    <ellipse cx="256" cy="256" rx="122" ry="92" />
    <path d="M256 134 A 60 122 0 0 0 256 378 A 60 122 0 0 0 256 134 Z"/>
    <path d="M256 134 A 104 122 0 0 0 256 378 A 104 122 0 0 0 256 134 Z"/>
  </g>
  <line x1="134" y1="256" x2="378" y2="256" stroke="#46afff" stroke-opacity="0.4" stroke-width="1.4"/>
  <line x1="256" y1="134" x2="256" y2="378" stroke="#46afff" stroke-opacity="0.22" stroke-width="1.2"/>
  <circle cx="256" cy="256" r="138" fill="url(#or_rim)"/>
  <circle cx="256" cy="256" r="122" fill="none" stroke="#39d0ff" stroke-opacity="0.55" stroke-width="1.6"/>
  <path d="M168 178 A 122 122 0 0 1 256 134" fill="none" stroke="#aa73ff" stroke-width="3.2" stroke-linecap="round" opacity="0.9" filter="url(#or_glow)"/>
  <path d="M344 320 A 122 122 0 0 1 256 378" fill="none" stroke="#2ee6c2" stroke-width="2.6" stroke-linecap="round" opacity="0.75" filter="url(#or_glow)"/>
  <g filter="url(#or_glow)">
    <ellipse cx="256" cy="256" rx="196" ry="74" fill="none" stroke="url(#or_ringB)" stroke-width="4.5" transform="rotate(-34 256 256)" opacity="0.95"/>
  </g>
  <g filter="url(#or_glow)">
    <ellipse cx="256" cy="256" rx="190" ry="60" fill="none" stroke="url(#or_ringA)" stroke-width="4" transform="rotate(28 256 256)" opacity="0.92"/>
  </g>
  <g>
    <circle cx="376" cy="316" r="22" fill="url(#or_node)"/>
    <circle cx="376" cy="316" r="6.5" fill="#eafcff" filter="url(#or_nodeGlow)"/>
    <circle cx="376" cy="316" r="3.2" fill="#ffffff"/>
  </g>
</svg>